# xmcd CD database file
#
# Track frame offsets:
#	150
#	14886
#	29492
#	45992
#	65629
#	82002
#	98990
#	116295
#	129180
#	144384
#	159685
#
# Disc length: 2321 seconds
#
# Revision: 0
# Processed by: cddbd v1.5.2PL0 Copyright (c) Steve Scherf et al.
# Submitted via: CDex 1.51
#
DISCID=92090f0b
DTITLE=Jessica Erin - Free to be Me
DYEAR=2007
DGENRE=Country
TTITLE0=Just What You're Looking For
TTITLE1=Girls' Night Out
TTITLE2=Folow Your Heart
TTITLE3=Say Goodbye
TTITLE4=Big Way
TTITLE5=Sorry
TTITLE6=I Can't Let You Go
TTITLE7=Bad Girl
TTITLE8=How's It Gonna Feel
TTITLE9=When Words Won't Say
TTITLE10=American Girl
EXTD=YEAR: 2007
EXTT0=
EXTT1=
EXTT2=
EXTT3=
EXTT4=
EXTT5=
EXTT6=
EXTT7=
EXTT8=
EXTT9=
EXTT10=
PLAYORDER=
